# xmcd
#
# Track frame offsets: 
#        150
#        25103
#        48029
#        66284
#        85641
#        101949
#        110966
#        122748
#        135174
#        151435
#        173789
#        190775
#        203996
#        218710
#        228227
#        243669
#        256652
#        270074
#        280888
#        289127
#
# Disc length: 4095 seconds
#
# Revision: 0
# Processed by: cddbd v1.5.2PL0 Copyright (c) Steve Scherf et al.
# Submitted via: ExactAudioCopy v0.99pb1
#
DISCID=160ffd14
DTITLE=Various Artist - The George Mitchell Collection, Volumes 1-7 - Disc 6
DYEAR=2008
DGENRE=Blues
TTITLE0=Furry Lewis - Good Morning Judge
TTITLE1=Furry Lewis - Furry Lewis' Careless Love
TTITLE2=Jimmy Lee Williams - What Makes Grandpa Love Grandma So
TTITLE3=Jimmy Lee Williams - Have You Ever Seen Peaches
TTITLE4=J.W. Warren - Hoboing Into Hollywood
TTITLE5=J.W. Warren - Sundown Blues
TTITLE6=J.W. Warren - Rabbit On A Log
TTITLE7=J.W. Warren - You're Gonna Miss Me
TTITLE8=Eddie Harris - House On the Hill
TTITLE9=Eddie Harris - I Have to Love Somebody
TTITLE10=James Davis - Old Country Rock #1
TTITLE11=James Davis - Instrumental #1
TTITLE12=James Davis - Who Stole the Lock Off the Henhouse Door?
TTITLE13=James Davis - Instrumental #4
TTITLE14=Robert Nighthawk - Canned Heat
TTITLE15=Robert Nighthawk - Nighthawk Boogie
TTITLE16=Robert Nighthawk - Down by the Woodshed
TTITLE17=Jessie Mae Hemphill - Home Going
TTITLE18=Jessie Mae Hemphill - I Want To Be Ready
TTITLE19=Jessie Mae Hemphill - Interview
EXTD=
EXTT0=
EXTT1=
EXTT2=
EXTT3=
EXTT4=
EXTT5=
EXTT6=
EXTT7=
EXTT8=
EXTT9=
EXTT10=
EXTT11=
EXTT12=
EXTT13=
EXTT14=
EXTT15=
EXTT16=
EXTT17=
EXTT18=
EXTT19=
PLAYORDER=
